<svg xmlns="http://www.w3.org/2000/svg" xmlns:xlink="http://www.w3.org/1999/xlink" width="500" zoomAndPan="magnify" viewBox="0 0 375 149.999998" height="200" preserveAspectRatio="xMidYMid meet" version="1.0"><defs><g/></defs><g fill="#ffffff" fill-opacity="1"><g transform="translate(0.614299, 102.291876)"><g><path d="M 58.328125 -23.375 L 20.859375 -23.375 C 20.859375 -19.75 22.03125 -17.0625 24.375 -15.3125 C 26.726562 -13.5625 29.28125 -12.6875 32.03125 -12.6875 C 34.914062 -12.6875 37.195312 -13.070312 38.875 -13.84375 C 40.5625 -14.625 42.476562 -16.15625 44.625 -18.4375 L 57.515625 -11.984375 C 52.140625 -2.984375 43.207031 1.515625 30.71875 1.515625 C 22.925781 1.515625 16.242188 -1.148438 10.671875 -6.484375 C 5.097656 -11.828125 2.3125 -18.257812 2.3125 -25.78125 C 2.3125 -33.300781 5.097656 -39.75 10.671875 -45.125 C 16.242188 -50.5 22.925781 -53.1875 30.71875 -53.1875 C 38.914062 -53.1875 45.582031 -50.816406 50.71875 -46.078125 C 55.851562 -41.347656 58.421875 -34.582031 58.421875 -25.78125 C 58.421875 -24.570312 58.390625 -23.769531 58.328125 -23.375 Z M 21.359375 -33.25 L 41 -33.25 C 40.59375 -35.925781 39.53125 -37.988281 37.8125 -39.4375 C 36.101562 -40.882812 33.910156 -41.609375 31.234375 -41.609375 C 28.273438 -41.609375 25.921875 -40.832031 24.171875 -39.28125 C 22.429688 -37.738281 21.492188 -35.726562 21.359375 -33.25 Z M 21.359375 -33.25 "/></g></g></g><g fill="#ffffff" fill-opacity="1"><g transform="translate(53.584452, 102.291876)"><g><path d="M 28.515625 -53.1875 C 31.460938 -53.1875 34.378906 -52.847656 37.265625 -52.171875 C 40.160156 -51.503906 42.3125 -50.835938 43.71875 -50.171875 L 45.828125 -49.15625 L 39.984375 -37.46875 C 35.960938 -39.625 32.140625 -40.703125 28.515625 -40.703125 C 26.492188 -40.703125 25.0625 -40.484375 24.21875 -40.046875 C 23.382812 -39.609375 22.96875 -38.785156 22.96875 -37.578125 C 22.96875 -37.304688 23 -37.035156 23.0625 -36.765625 C 23.132812 -36.492188 23.269531 -36.238281 23.46875 -36 C 23.664062 -35.769531 23.847656 -35.570312 24.015625 -35.40625 C 24.191406 -35.238281 24.476562 -35.050781 24.875 -34.84375 C 25.28125 -34.644531 25.597656 -34.492188 25.828125 -34.390625 C 26.066406 -34.296875 26.453125 -34.144531 26.984375 -33.9375 C 27.523438 -33.738281 27.929688 -33.585938 28.203125 -33.484375 C 28.472656 -33.390625 28.925781 -33.238281 29.5625 -33.03125 C 30.195312 -32.832031 30.6875 -32.703125 31.03125 -32.640625 C 33.113281 -32.035156 34.925781 -31.363281 36.46875 -30.625 C 38.007812 -29.882812 39.632812 -28.875 41.34375 -27.59375 C 43.0625 -26.320312 44.390625 -24.710938 45.328125 -22.765625 C 46.265625 -20.816406 46.734375 -18.601562 46.734375 -16.125 C 46.734375 -4.363281 38.578125 1.515625 22.265625 1.515625 C 18.566406 1.515625 15.054688 0.945312 11.734375 -0.1875 C 8.410156 -1.332031 6.007812 -2.476562 4.53125 -3.625 L 2.3125 -5.4375 L 9.5625 -17.625 C 10.101562 -17.15625 10.8125 -16.601562 11.6875 -15.96875 C 12.5625 -15.332031 14.140625 -14.457031 16.421875 -13.34375 C 18.703125 -12.238281 20.679688 -11.6875 22.359375 -11.6875 C 26.054688 -11.6875 27.90625 -12.925781 27.90625 -15.40625 C 27.90625 -16.550781 27.429688 -17.441406 26.484375 -18.078125 C 25.546875 -18.710938 23.953125 -19.429688 21.703125 -20.234375 C 19.453125 -21.046875 17.691406 -21.789062 16.421875 -22.46875 C 13.191406 -24.144531 10.632812 -26.039062 8.75 -28.15625 C 6.875 -30.269531 5.9375 -33.070312 5.9375 -36.5625 C 5.9375 -41.800781 7.96875 -45.878906 12.03125 -48.796875 C 16.09375 -51.722656 21.585938 -53.1875 28.515625 -53.1875 Z M 28.515625 -53.1875 "/></g></g></g><g fill="#ffffff" fill-opacity="1"><g transform="translate(95.376023, 102.291876)"><g><path d="M 28.515625 -53.1875 C 31.460938 -53.1875 34.378906 -52.847656 37.265625 -52.171875 C 40.160156 -51.503906 42.3125 -50.835938 43.71875 -50.171875 L 45.828125 -49.15625 L 39.984375 -37.46875 C 35.960938 -39.625 32.140625 -40.703125 28.515625 -40.703125 C 26.492188 -40.703125 25.0625 -40.484375 24.21875 -40.046875 C 23.382812 -39.609375 22.96875 -38.785156 22.96875 -37.578125 C 22.96875 -37.304688 23 -37.035156 23.0625 -36.765625 C 23.132812 -36.492188 23.269531 -36.238281 23.46875 -36 C 23.664062 -35.769531 23.847656 -35.570312 24.015625 -35.40625 C 24.191406 -35.238281 24.476562 -35.050781 24.875 -34.84375 C 25.28125 -34.644531 25.597656 -34.492188 25.828125 -34.390625 C 26.066406 -34.296875 26.453125 -34.144531 26.984375 -33.9375 C 27.523438 -33.738281 27.929688 -33.585938 28.203125 -33.484375 C 28.472656 -33.390625 28.925781 -33.238281 29.5625 -33.03125 C 30.195312 -32.832031 30.6875 -32.703125 31.03125 -32.640625 C 33.113281 -32.035156 34.925781 -31.363281 36.46875 -30.625 C 38.007812 -29.882812 39.632812 -28.875 41.34375 -27.59375 C 43.0625 -26.320312 44.390625 -24.710938 45.328125 -22.765625 C 46.265625 -20.816406 46.734375 -18.601562 46.734375 -16.125 C 46.734375 -4.363281 38.578125 1.515625 22.265625 1.515625 C 18.566406 1.515625 15.054688 0.945312 11.734375 -0.1875 C 8.410156 -1.332031 6.007812 -2.476562 4.53125 -3.625 L 2.3125 -5.4375 L 9.5625 -17.625 C 10.101562 -17.15625 10.8125 -16.601562 11.6875 -15.96875 C 12.5625 -15.332031 14.140625 -14.457031 16.421875 -13.34375 C 18.703125 -12.238281 20.679688 -11.6875 22.359375 -11.6875 C 26.054688 -11.6875 27.90625 -12.925781 27.90625 -15.40625 C 27.90625 -16.550781 27.429688 -17.441406 26.484375 -18.078125 C 25.546875 -18.710938 23.953125 -19.429688 21.703125 -20.234375 C 19.453125 -21.046875 17.691406 -21.789062 16.421875 -22.46875 C 13.191406 -24.144531 10.632812 -26.039062 8.75 -28.15625 C 6.875 -30.269531 5.9375 -33.070312 5.9375 -36.5625 C 5.9375 -41.800781 7.96875 -45.878906 12.03125 -48.796875 C 16.09375 -51.722656 21.585938 -53.1875 28.515625 -53.1875 Z M 28.515625 -53.1875 "/></g></g></g><g fill="#ffffff" fill-opacity="1"><g transform="translate(137.1676, 102.291876)"><g><path d="M 9.5625 -6.390625 C 4.726562 -11.660156 2.3125 -18.125 2.3125 -25.78125 C 2.3125 -33.4375 4.726562 -39.914062 9.5625 -45.21875 C 14.40625 -50.53125 20.550781 -53.1875 28 -53.1875 C 34.851562 -53.1875 40.492188 -51.035156 44.921875 -46.734375 L 44.921875 -51.671875 L 62.75 -51.671875 L 62.75 0 L 45.125 0 L 45.125 -5.84375 L 44.921875 -5.84375 C 40.492188 -0.9375 34.851562 1.515625 28 1.515625 C 20.550781 1.515625 14.40625 -1.117188 9.5625 -6.390625 Z M 24.71875 -34.546875 C 22.40625 -32.265625 21.25 -29.34375 21.25 -25.78125 C 21.25 -22.226562 22.359375 -19.328125 24.578125 -17.078125 C 26.796875 -14.828125 29.71875 -13.703125 33.34375 -13.703125 C 36.832031 -13.703125 39.703125 -14.84375 41.953125 -17.125 C 44.203125 -19.40625 45.328125 -22.289062 45.328125 -25.78125 C 45.328125 -29.34375 44.164062 -32.265625 41.84375 -34.546875 C 39.53125 -36.835938 36.695312 -37.984375 33.34375 -37.984375 C 29.914062 -37.984375 27.039062 -36.835938 24.71875 -34.546875 Z M 24.71875 -34.546875 "/></g></g></g><g fill="#ffffff" fill-opacity="1"><g transform="translate(198.194395, 102.291876)"><g><path d="M 9.5625 -6.390625 C 4.726562 -11.660156 2.3125 -18.125 2.3125 -25.78125 C 2.3125 -33.4375 4.726562 -39.914062 9.5625 -45.21875 C 14.40625 -50.53125 20.550781 -53.1875 28 -53.1875 C 34.851562 -53.1875 40.492188 -51.035156 44.921875 -46.734375 L 44.921875 -86.625 L 62.75 -86.625 L 62.75 0 L 45.125 0 L 45.125 -5.84375 L 44.921875 -5.84375 C 40.492188 -0.9375 34.851562 1.515625 28 1.515625 C 20.550781 1.515625 14.40625 -1.117188 9.5625 -6.390625 Z M 24.71875 -34.546875 C 22.40625 -32.265625 21.25 -29.34375 21.25 -25.78125 C 21.25 -22.226562 22.359375 -19.328125 24.578125 -17.078125 C 26.796875 -14.828125 29.71875 -13.703125 33.34375 -13.703125 C 36.832031 -13.703125 39.703125 -14.84375 41.953125 -17.125 C 44.203125 -19.40625 45.328125 -22.289062 45.328125 -25.78125 C 45.328125 -29.34375 44.164062 -32.265625 41.84375 -34.546875 C 39.53125 -36.835938 36.695312 -37.984375 33.34375 -37.984375 C 29.914062 -37.984375 27.039062 -36.835938 24.71875 -34.546875 Z M 24.71875 -34.546875 "/></g></g></g><g fill="#5fead6" fill-opacity="1"><g transform="translate(259.241726, 102.291876)"><g><path d="M 7.75 -80.484375 C 9.832031 -82.566406 12.316406 -83.609375 15.203125 -83.609375 C 18.097656 -83.609375 20.582031 -82.566406 22.65625 -80.484375 C 24.738281 -78.398438 25.78125 -75.914062 25.78125 -73.03125 C 25.78125 -70.144531 24.738281 -67.660156 22.65625 -65.578125 C 20.582031 -63.492188 18.097656 -62.453125 15.203125 -62.453125 C 12.316406 -62.453125 9.832031 -63.492188 7.75 -65.578125 C 5.675781 -67.660156 4.640625 -70.144531 4.640625 -73.03125 C 4.640625 -75.914062 5.675781 -78.398438 7.75 -80.484375 Z M 6.046875 -51.671875 L 6.046875 0 L 23.875 0 L 23.875 -51.671875 Z M 6.046875 -51.671875 "/></g></g></g><g fill="#ffffff" fill-opacity="1"><g transform="translate(281.900431, 102.291876)"><g><path d="M 65.078125 -51.671875 L 40.5 -27 L 67.484375 0 L 44.53125 0 L 23.875 -20.65625 L 23.875 0 L 6.046875 0 L 6.046875 -86.625 L 23.875 -86.625 L 23.875 -33.640625 L 41.90625 -51.671875 Z M 65.078125 -51.671875 "/></g></g></g><g fill="#5fead6" fill-opacity="1"><g transform="translate(339.204154, 102.291876)"><g><path d="M 17.53125 -21.5625 C 20.75 -21.5625 23.484375 -20.4375 25.734375 -18.1875 C 27.984375 -15.9375 29.109375 -13.195312 29.109375 -9.96875 C 29.109375 -6.8125 27.984375 -4.109375 25.734375 -1.859375 C 23.484375 0.390625 20.75 1.515625 17.53125 1.515625 C 14.375 1.515625 11.671875 0.390625 9.421875 -1.859375 C 7.171875 -4.109375 6.046875 -6.8125 6.046875 -9.96875 C 6.046875 -13.195312 7.171875 -15.9375 9.421875 -18.1875 C 11.671875 -20.4375 14.375 -21.5625 17.53125 -21.5625 Z M 17.53125 -21.5625 "/></g></g></g><g fill="#f1efe7" fill-opacity="1"><g transform="translate(77.552316, 120.354739)"><g><path d="M 1.890625 -6.34375 L 1.890625 -4.1875 L 4.453125 -4.1875 C 4.597656 -4.1875 4.71875 -4.140625 4.8125 -4.046875 C 4.90625 -3.953125 4.953125 -3.832031 4.953125 -3.6875 C 4.953125 -3.5625 4.90625 -3.453125 4.8125 -3.359375 C 4.71875 -3.273438 4.597656 -3.234375 4.453125 -3.234375 L 1.890625 -3.234375 L 1.890625 -0.5 C 1.890625 -0.363281 1.835938 -0.242188 1.734375 -0.140625 C 1.640625 -0.046875 1.519531 0 1.375 0 C 1.226562 0 1.101562 -0.046875 1 -0.140625 C 0.90625 -0.242188 0.859375 -0.363281 0.859375 -0.5 L 0.859375 -6.8125 C 0.859375 -6.945312 0.90625 -7.0625 1 -7.15625 C 1.101562 -7.257812 1.226562 -7.3125 1.375 -7.3125 L 4.921875 -7.3125 C 5.066406 -7.3125 5.1875 -7.265625 5.28125 -7.171875 C 5.375 -7.078125 5.421875 -6.957031 5.421875 -6.8125 C 5.421875 -6.6875 5.375 -6.578125 5.28125 -6.484375 C 5.1875 -6.390625 5.066406 -6.34375 4.921875 -6.34375 Z M 1.890625 -6.34375 "/></g></g></g><g fill="#f1efe7" fill-opacity="1"><g transform="translate(90.246351, 120.354739)"><g><path d="M 4.8125 -5.46875 C 4.957031 -5.46875 5.078125 -5.414062 5.171875 -5.3125 C 5.265625 -5.21875 5.3125 -5.101562 5.3125 -4.96875 L 5.3125 -2.1875 C 5.3125 -1.46875 5.109375 -0.90625 4.703125 -0.5 C 4.304688 -0.101562 3.742188 0.09375 3.015625 0.09375 C 2.296875 0.09375 1.734375 -0.101562 1.328125 -0.5 C 0.929688 -0.90625 0.734375 -1.46875 0.734375 -2.1875 L 0.734375 -4.96875 C 0.734375 -5.101562 0.78125 -5.21875 0.875 -5.3125 C 0.96875 -5.414062 1.085938 -5.46875 1.234375 -5.46875 C 1.378906 -5.46875 1.5 -5.414062 1.59375 -5.3125 C 1.6875 -5.21875 1.734375 -5.101562 1.734375 -4.96875 L 1.734375 -2.1875 C 1.734375 -1.28125 2.160156 -0.828125 3.015625 -0.828125 C 3.441406 -0.828125 3.765625 -0.941406 3.984375 -1.171875 C 4.210938 -1.398438 4.328125 -1.738281 4.328125 -2.1875 L 4.328125 -4.96875 C 4.328125 -5.101562 4.375 -5.21875 4.46875 -5.3125 C 4.5625 -5.414062 4.675781 -5.46875 4.8125 -5.46875 Z M 4.8125 -5.46875 "/></g></g></g><g fill="#f1efe7" fill-opacity="1"><g transform="translate(103.107414, 120.354739)"><g><path d="M 1.8125 -0.5 C 1.8125 -0.363281 1.765625 -0.242188 1.671875 -0.140625 C 1.578125 -0.046875 1.457031 0 1.3125 0 C 1.175781 0 1.0625 -0.046875 0.96875 -0.140625 C 0.875 -0.242188 0.828125 -0.363281 0.828125 -0.5 L 0.828125 -7.21875 C 0.828125 -7.363281 0.875 -7.484375 0.96875 -7.578125 C 1.0625 -7.671875 1.179688 -7.71875 1.328125 -7.71875 C 1.460938 -7.71875 1.578125 -7.671875 1.671875 -7.578125 C 1.765625 -7.484375 1.8125 -7.363281 1.8125 -7.21875 Z M 1.8125 -0.5 "/></g></g></g><g fill="#f1efe7" fill-opacity="1"><g transform="translate(112.554857, 120.354739)"><g><path d="M 1.8125 -0.5 C 1.8125 -0.363281 1.765625 -0.242188 1.671875 -0.140625 C 1.578125 -0.046875 1.457031 0 1.3125 0 C 1.175781 0 1.0625 -0.046875 0.96875 -0.140625 C 0.875 -0.242188 0.828125 -0.363281 0.828125 -0.5 L 0.828125 -7.21875 C 0.828125 -7.363281 0.875 -7.484375 0.96875 -7.578125 C 1.0625 -7.671875 1.179688 -7.71875 1.328125 -7.71875 C 1.460938 -7.71875 1.578125 -7.671875 1.671875 -7.578125 C 1.765625 -7.484375 1.8125 -7.363281 1.8125 -7.21875 Z M 1.8125 -0.5 "/></g></g></g><g fill="#f1efe7" fill-opacity="1"><g transform="translate(122.002298, 120.354739)"><g/></g></g><g fill="#f1efe7" fill-opacity="1"><g transform="translate(131.700272, 120.354739)"><g><path d="M 0.421875 -0.859375 C 0.359375 -0.953125 0.328125 -1.046875 0.328125 -1.140625 C 0.328125 -1.273438 0.398438 -1.394531 0.546875 -1.5 C 0.617188 -1.539062 0.703125 -1.5625 0.796875 -1.5625 C 0.921875 -1.5625 1.035156 -1.507812 1.140625 -1.40625 C 1.347656 -1.164062 1.570312 -0.988281 1.8125 -0.875 C 2.050781 -0.757812 2.335938 -0.703125 2.671875 -0.703125 C 2.929688 -0.703125 3.160156 -0.757812 3.359375 -0.875 C 3.566406 -0.988281 3.671875 -1.175781 3.671875 -1.4375 C 3.671875 -1.675781 3.566406 -1.859375 3.359375 -1.984375 C 3.160156 -2.109375 2.863281 -2.222656 2.46875 -2.328125 C 2.070312 -2.429688 1.742188 -2.539062 1.484375 -2.65625 C 1.234375 -2.769531 1.019531 -2.9375 0.84375 -3.15625 C 0.664062 -3.375 0.578125 -3.660156 0.578125 -4.015625 C 0.578125 -4.328125 0.664062 -4.601562 0.84375 -4.84375 C 1.019531 -5.082031 1.253906 -5.265625 1.546875 -5.390625 C 1.847656 -5.523438 2.171875 -5.59375 2.515625 -5.59375 C 2.847656 -5.59375 3.179688 -5.53125 3.515625 -5.40625 C 3.847656 -5.28125 4.117188 -5.085938 4.328125 -4.828125 C 4.410156 -4.734375 4.453125 -4.632812 4.453125 -4.53125 C 4.453125 -4.414062 4.394531 -4.304688 4.28125 -4.203125 C 4.207031 -4.140625 4.117188 -4.109375 4.015625 -4.109375 C 3.890625 -4.109375 3.789062 -4.148438 3.71875 -4.234375 C 3.570312 -4.398438 3.390625 -4.53125 3.171875 -4.625 C 2.960938 -4.71875 2.726562 -4.765625 2.46875 -4.765625 C 2.207031 -4.765625 1.984375 -4.707031 1.796875 -4.59375 C 1.617188 -4.488281 1.53125 -4.304688 1.53125 -4.046875 C 1.53125 -3.804688 1.632812 -3.625 1.84375 -3.5 C 2.050781 -3.382812 2.363281 -3.269531 2.78125 -3.15625 C 3.15625 -3.0625 3.460938 -2.957031 3.703125 -2.84375 C 3.953125 -2.738281 4.160156 -2.578125 4.328125 -2.359375 C 4.492188 -2.140625 4.578125 -1.851562 4.578125 -1.5 C 4.578125 -1.164062 4.484375 -0.878906 4.296875 -0.640625 C 4.109375 -0.398438 3.859375 -0.210938 3.546875 -0.078125 C 3.242188 0.046875 2.925781 0.109375 2.59375 0.109375 C 2.15625 0.109375 1.75 0.03125 1.375 -0.125 C 1 -0.28125 0.679688 -0.523438 0.421875 -0.859375 Z M 0.421875 -0.859375 "/></g></g></g><g fill="#f1efe7" fill-opacity="1"><g transform="translate(143.486095, 120.354739)"><g><path d="M 2.21875 -4.5 L 2.21875 -1.390625 C 2.21875 -1.035156 2.375 -0.859375 2.6875 -0.859375 C 2.738281 -0.859375 2.804688 -0.867188 2.890625 -0.890625 C 2.972656 -0.921875 3.039062 -0.9375 3.09375 -0.9375 C 3.175781 -0.9375 3.25 -0.894531 3.3125 -0.8125 C 3.375 -0.738281 3.40625 -0.644531 3.40625 -0.53125 C 3.40625 -0.382812 3.320312 -0.257812 3.15625 -0.15625 C 2.988281 -0.0507812 2.800781 0 2.59375 0 C 2.363281 0 2.15625 -0.0195312 1.96875 -0.0625 C 1.78125 -0.113281 1.609375 -0.238281 1.453125 -0.4375 C 1.304688 -0.632812 1.234375 -0.9375 1.234375 -1.34375 L 1.234375 -4.5 L 0.625 -4.5 C 0.488281 -4.5 0.378906 -4.539062 0.296875 -4.625 C 0.210938 -4.71875 0.171875 -4.828125 0.171875 -4.953125 C 0.171875 -5.085938 0.210938 -5.195312 0.296875 -5.28125 C 0.378906 -5.363281 0.488281 -5.40625 0.625 -5.40625 L 1.234375 -5.40625 L 1.234375 -6.28125 C 1.234375 -6.414062 1.28125 -6.53125 1.375 -6.625 C 1.46875 -6.726562 1.585938 -6.78125 1.734375 -6.78125 C 1.867188 -6.78125 1.984375 -6.726562 2.078125 -6.625 C 2.171875 -6.53125 2.21875 -6.414062 2.21875 -6.28125 L 2.21875 -5.40625 L 3.09375 -5.40625 C 3.21875 -5.40625 3.320312 -5.359375 3.40625 -5.265625 C 3.5 -5.179688 3.546875 -5.078125 3.546875 -4.953125 C 3.546875 -4.816406 3.5 -4.707031 3.40625 -4.625 C 3.320312 -4.539062 3.21875 -4.5 3.09375 -4.5 Z M 2.21875 -4.5 "/></g></g></g><g fill="#f1efe7" fill-opacity="1"><g transform="translate(154.259308, 120.354739)"><g><path d="M 5.171875 -5.546875 C 5.316406 -5.546875 5.4375 -5.5 5.53125 -5.40625 C 5.625 -5.3125 5.671875 -5.1875 5.671875 -5.03125 L 5.671875 -0.5 C 5.671875 -0.363281 5.625 -0.242188 5.53125 -0.140625 C 5.4375 -0.046875 5.316406 0 5.171875 0 C 5.023438 0 4.90625 -0.046875 4.8125 -0.140625 C 4.726562 -0.234375 4.6875 -0.351562 4.6875 -0.5 L 4.6875 -0.765625 C 4.507812 -0.523438 4.257812 -0.316406 3.9375 -0.140625 C 3.625 0.0234375 3.289062 0.109375 2.9375 0.109375 C 2.457031 0.109375 2.023438 -0.0078125 1.640625 -0.25 C 1.253906 -0.5 0.953125 -0.84375 0.734375 -1.28125 C 0.515625 -1.71875 0.40625 -2.207031 0.40625 -2.75 C 0.40625 -3.289062 0.515625 -3.773438 0.734375 -4.203125 C 0.953125 -4.640625 1.253906 -4.976562 1.640625 -5.21875 C 2.023438 -5.46875 2.445312 -5.59375 2.90625 -5.59375 C 3.269531 -5.59375 3.609375 -5.515625 3.921875 -5.359375 C 4.242188 -5.210938 4.5 -5.019531 4.6875 -4.78125 L 4.6875 -5.03125 C 4.6875 -5.175781 4.726562 -5.296875 4.8125 -5.390625 C 4.90625 -5.492188 5.023438 -5.546875 5.171875 -5.546875 Z M 3.046875 -0.8125 C 3.367188 -0.8125 3.65625 -0.894531 3.90625 -1.0625 C 4.164062 -1.226562 4.367188 -1.457031 4.515625 -1.75 C 4.660156 -2.039062 4.734375 -2.375 4.734375 -2.75 C 4.734375 -3.101562 4.660156 -3.425781 4.515625 -3.71875 C 4.367188 -4.019531 4.164062 -4.253906 3.90625 -4.421875 C 3.65625 -4.585938 3.367188 -4.671875 3.046875 -4.671875 C 2.722656 -4.671875 2.429688 -4.585938 2.171875 -4.421875 C 1.921875 -4.253906 1.722656 -4.023438 1.578125 -3.734375 C 1.441406 -3.441406 1.375 -3.113281 1.375 -2.75 C 1.375 -2.375 1.441406 -2.039062 1.578125 -1.75 C 1.722656 -1.457031 1.921875 -1.226562 2.171875 -1.0625 C 2.429688 -0.894531 2.722656 -0.8125 3.046875 -0.8125 Z M 3.046875 -0.8125 "/></g></g></g><g fill="#f1efe7" fill-opacity="1"><g transform="translate(167.475304, 120.354739)"><g><path d="M 3.125 -5.59375 C 3.675781 -5.59375 4.132812 -5.503906 4.5 -5.328125 C 4.863281 -5.160156 5.046875 -4.941406 5.046875 -4.671875 C 5.046875 -4.546875 5.003906 -4.4375 4.921875 -4.34375 C 4.847656 -4.25 4.753906 -4.203125 4.640625 -4.203125 C 4.546875 -4.203125 4.472656 -4.21875 4.421875 -4.25 C 4.367188 -4.28125 4.296875 -4.328125 4.203125 -4.390625 C 4.160156 -4.429688 4.097656 -4.476562 4.015625 -4.53125 C 3.921875 -4.570312 3.796875 -4.601562 3.640625 -4.625 C 3.492188 -4.65625 3.359375 -4.671875 3.234375 -4.671875 C 2.867188 -4.671875 2.546875 -4.585938 2.265625 -4.421875 C 1.992188 -4.253906 1.78125 -4.019531 1.625 -3.71875 C 1.476562 -3.425781 1.40625 -3.101562 1.40625 -2.75 C 1.40625 -2.375 1.476562 -2.039062 1.625 -1.75 C 1.769531 -1.457031 1.976562 -1.226562 2.25 -1.0625 C 2.519531 -0.894531 2.832031 -0.8125 3.1875 -0.8125 C 3.539062 -0.8125 3.832031 -0.867188 4.0625 -0.984375 C 4.113281 -1.003906 4.179688 -1.046875 4.265625 -1.109375 C 4.328125 -1.171875 4.382812 -1.210938 4.4375 -1.234375 C 4.488281 -1.265625 4.554688 -1.28125 4.640625 -1.28125 C 4.773438 -1.28125 4.878906 -1.234375 4.953125 -1.140625 C 5.035156 -1.054688 5.078125 -0.945312 5.078125 -0.8125 C 5.078125 -0.664062 4.984375 -0.519531 4.796875 -0.375 C 4.617188 -0.238281 4.375 -0.125 4.0625 -0.03125 C 3.75 0.0625 3.414062 0.109375 3.0625 0.109375 C 2.539062 0.109375 2.078125 -0.015625 1.671875 -0.265625 C 1.265625 -0.515625 0.953125 -0.851562 0.734375 -1.28125 C 0.515625 -1.71875 0.40625 -2.207031 0.40625 -2.75 C 0.40625 -3.28125 0.519531 -3.765625 0.75 -4.203125 C 0.976562 -4.640625 1.296875 -4.976562 1.703125 -5.21875 C 2.117188 -5.46875 2.59375 -5.59375 3.125 -5.59375 Z M 3.125 -5.59375 "/></g></g></g><g fill="#f1efe7" fill-opacity="1"><g transform="translate(179.647375, 120.354739)"><g><path d="M 5.203125 -0.859375 C 5.304688 -0.753906 5.359375 -0.632812 5.359375 -0.5 C 5.359375 -0.363281 5.304688 -0.25 5.203125 -0.15625 C 5.097656 -0.0625 4.984375 -0.015625 4.859375 -0.015625 C 4.710938 -0.015625 4.59375 -0.0664062 4.5 -0.171875 L 2.4375 -2.359375 L 1.8125 -1.796875 L 1.8125 -0.5 C 1.8125 -0.363281 1.765625 -0.242188 1.671875 -0.140625 C 1.578125 -0.046875 1.460938 0 1.328125 0 C 1.179688 0 1.0625 -0.046875 0.96875 -0.140625 C 0.875 -0.242188 0.828125 -0.363281 0.828125 -0.5 L 0.828125 -7.21875 C 0.828125 -7.363281 0.875 -7.484375 0.96875 -7.578125 C 1.0625 -7.671875 1.179688 -7.71875 1.328125 -7.71875 C 1.460938 -7.71875 1.578125 -7.671875 1.671875 -7.578125 C 1.765625 -7.484375 1.8125 -7.363281 1.8125 -7.21875 L 1.8125 -2.984375 L 4.375 -5.328125 C 4.488281 -5.429688 4.609375 -5.484375 4.734375 -5.484375 C 4.859375 -5.484375 4.96875 -5.429688 5.0625 -5.328125 C 5.15625 -5.234375 5.203125 -5.128906 5.203125 -5.015625 C 5.203125 -4.878906 5.140625 -4.753906 5.015625 -4.640625 L 3.203125 -3.03125 Z M 5.203125 -0.859375 "/></g></g></g><g fill="#f1efe7" fill-opacity="1"><g transform="translate(192.247462, 120.354739)"><g><path d="M 3.9375 -7.3125 C 4.59375 -7.3125 5.148438 -7.144531 5.609375 -6.8125 C 6.078125 -6.488281 6.429688 -6.050781 6.671875 -5.5 C 6.910156 -4.945312 7.03125 -4.332031 7.03125 -3.65625 C 7.03125 -2.96875 6.910156 -2.347656 6.671875 -1.796875 C 6.429688 -1.242188 6.078125 -0.804688 5.609375 -0.484375 C 5.148438 -0.160156 4.59375 0 3.9375 0 L 1.375 0 C 1.226562 0 1.101562 -0.046875 1 -0.140625 C 0.90625 -0.242188 0.859375 -0.363281 0.859375 -0.5 L 0.859375 -6.8125 C 0.859375 -6.945312 0.90625 -7.0625 1 -7.15625 C 1.101562 -7.257812 1.226562 -7.3125 1.375 -7.3125 Z M 3.828125 -0.953125 C 4.535156 -0.953125 5.066406 -1.203125 5.421875 -1.703125 C 5.773438 -2.210938 5.953125 -2.863281 5.953125 -3.65625 C 5.953125 -4.4375 5.773438 -5.078125 5.421875 -5.578125 C 5.066406 -6.085938 4.535156 -6.34375 3.828125 -6.34375 L 1.90625 -6.34375 L 1.90625 -0.953125 Z M 3.828125 -0.953125 "/></g></g></g><g fill="#f1efe7" fill-opacity="1"><g transform="translate(206.538702, 120.354739)"><g><path d="M 5.546875 -2.9375 C 5.535156 -2.8125 5.476562 -2.707031 5.375 -2.625 C 5.28125 -2.539062 5.171875 -2.5 5.046875 -2.5 L 1.375 -2.5 C 1.414062 -1.988281 1.601562 -1.578125 1.9375 -1.265625 C 2.28125 -0.960938 2.695312 -0.8125 3.1875 -0.8125 C 3.519531 -0.8125 3.789062 -0.859375 4 -0.953125 C 4.207031 -1.054688 4.390625 -1.1875 4.546875 -1.34375 C 4.648438 -1.40625 4.753906 -1.4375 4.859375 -1.4375 C 4.972656 -1.4375 5.066406 -1.390625 5.140625 -1.296875 C 5.222656 -1.210938 5.265625 -1.117188 5.265625 -1.015625 C 5.265625 -0.867188 5.195312 -0.734375 5.0625 -0.609375 C 4.863281 -0.410156 4.59375 -0.238281 4.25 -0.09375 C 3.914062 0.0390625 3.578125 0.109375 3.234375 0.109375 C 2.671875 0.109375 2.175781 -0.0078125 1.75 -0.25 C 1.320312 -0.488281 0.988281 -0.816406 0.75 -1.234375 C 0.519531 -1.660156 0.40625 -2.144531 0.40625 -2.6875 C 0.40625 -3.269531 0.523438 -3.78125 0.765625 -4.21875 C 1.003906 -4.664062 1.320312 -5.003906 1.71875 -5.234375 C 2.113281 -5.472656 2.535156 -5.59375 2.984375 -5.59375 C 3.429688 -5.59375 3.847656 -5.476562 4.234375 -5.25 C 4.628906 -5.019531 4.941406 -4.703125 5.171875 -4.296875 C 5.410156 -3.890625 5.535156 -3.4375 5.546875 -2.9375 Z M 2.984375 -4.671875 C 2.597656 -4.671875 2.257812 -4.5625 1.96875 -4.34375 C 1.6875 -4.125 1.5 -3.785156 1.40625 -3.328125 L 4.484375 -3.328125 L 4.484375 -3.40625 C 4.453125 -3.78125 4.285156 -4.082031 3.984375 -4.3125 C 3.691406 -4.550781 3.359375 -4.671875 2.984375 -4.671875 Z M 2.984375 -4.671875 "/></g></g></g><g fill="#f1efe7" fill-opacity="1"><g transform="translate(219.29537, 120.354739)"><g><path d="M 4.921875 -5.515625 C 5.046875 -5.515625 5.15625 -5.472656 5.25 -5.390625 C 5.34375 -5.304688 5.390625 -5.203125 5.390625 -5.078125 C 5.390625 -5.015625 5.363281 -4.929688 5.3125 -4.828125 L 3.328125 -0.3125 C 3.285156 -0.21875 3.222656 -0.144531 3.140625 -0.09375 C 3.066406 -0.0390625 2.988281 -0.0078125 2.90625 0 C 2.789062 0.0078125 2.6875 -0.0078125 2.59375 -0.0625 C 2.5 -0.113281 2.425781 -0.195312 2.375 -0.3125 L 0.390625 -4.828125 C 0.359375 -4.929688 0.34375 -5.015625 0.34375 -5.078125 C 0.34375 -5.191406 0.382812 -5.289062 0.46875 -5.375 C 0.5625 -5.46875 0.679688 -5.515625 0.828125 -5.515625 C 0.929688 -5.515625 1.023438 -5.488281 1.109375 -5.4375 C 1.191406 -5.382812 1.257812 -5.304688 1.3125 -5.203125 L 2.890625 -1.546875 L 4.46875 -5.203125 C 4.5625 -5.410156 4.710938 -5.515625 4.921875 -5.515625 Z M 4.921875 -5.515625 "/></g></g></g><g fill="#f1efe7" fill-opacity="1"><g transform="translate(231.822383, 120.354739)"><g><path d="M 5.546875 -2.9375 C 5.535156 -2.8125 5.476562 -2.707031 5.375 -2.625 C 5.28125 -2.539062 5.171875 -2.5 5.046875 -2.5 L 1.375 -2.5 C 1.414062 -1.988281 1.601562 -1.578125 1.9375 -1.265625 C 2.28125 -0.960938 2.695312 -0.8125 3.1875 -0.8125 C 3.519531 -0.8125 3.789062 -0.859375 4 -0.953125 C 4.207031 -1.054688 4.390625 -1.1875 4.546875 -1.34375 C 4.648438 -1.40625 4.753906 -1.4375 4.859375 -1.4375 C 4.972656 -1.4375 5.066406 -1.390625 5.140625 -1.296875 C 5.222656 -1.210938 5.265625 -1.117188 5.265625 -1.015625 C 5.265625 -0.867188 5.195312 -0.734375 5.0625 -0.609375 C 4.863281 -0.410156 4.59375 -0.238281 4.25 -0.09375 C 3.914062 0.0390625 3.578125 0.109375 3.234375 0.109375 C 2.671875 0.109375 2.175781 -0.0078125 1.75 -0.25 C 1.320312 -0.488281 0.988281 -0.816406 0.75 -1.234375 C 0.519531 -1.660156 0.40625 -2.144531 0.40625 -2.6875 C 0.40625 -3.269531 0.523438 -3.78125 0.765625 -4.21875 C 1.003906 -4.664062 1.320312 -5.003906 1.71875 -5.234375 C 2.113281 -5.472656 2.535156 -5.59375 2.984375 -5.59375 C 3.429688 -5.59375 3.847656 -5.476562 4.234375 -5.25 C 4.628906 -5.019531 4.941406 -4.703125 5.171875 -4.296875 C 5.410156 -3.890625 5.535156 -3.4375 5.546875 -2.9375 Z M 2.984375 -4.671875 C 2.597656 -4.671875 2.257812 -4.5625 1.96875 -4.34375 C 1.6875 -4.125 1.5 -3.785156 1.40625 -3.328125 L 4.484375 -3.328125 L 4.484375 -3.40625 C 4.453125 -3.78125 4.285156 -4.082031 3.984375 -4.3125 C 3.691406 -4.550781 3.359375 -4.671875 2.984375 -4.671875 Z M 2.984375 -4.671875 "/></g></g></g><g fill="#f1efe7" fill-opacity="1"><g transform="translate(244.57905, 120.354739)"><g><path d="M 1.8125 -0.5 C 1.8125 -0.363281 1.765625 -0.242188 1.671875 -0.140625 C 1.578125 -0.046875 1.457031 0 1.3125 0 C 1.175781 0 1.0625 -0.046875 0.96875 -0.140625 C 0.875 -0.242188 0.828125 -0.363281 0.828125 -0.5 L 0.828125 -7.21875 C 0.828125 -7.363281 0.875 -7.484375 0.96875 -7.578125 C 1.0625 -7.671875 1.179688 -7.71875 1.328125 -7.71875 C 1.460938 -7.71875 1.578125 -7.671875 1.671875 -7.578125 C 1.765625 -7.484375 1.8125 -7.363281 1.8125 -7.21875 Z M 1.8125 -0.5 "/></g></g></g><g fill="#f1efe7" fill-opacity="1"><g transform="translate(254.026497, 120.354739)"><g><path d="M 5.921875 -2.734375 C 5.921875 -2.191406 5.796875 -1.703125 5.546875 -1.265625 C 5.304688 -0.835938 4.972656 -0.5 4.546875 -0.25 C 4.128906 -0.0078125 3.664062 0.109375 3.15625 0.109375 C 2.65625 0.109375 2.191406 -0.0078125 1.765625 -0.25 C 1.347656 -0.5 1.015625 -0.835938 0.765625 -1.265625 C 0.523438 -1.703125 0.40625 -2.191406 0.40625 -2.734375 C 0.40625 -3.273438 0.523438 -3.765625 0.765625 -4.203125 C 1.015625 -4.640625 1.347656 -4.976562 1.765625 -5.21875 C 2.191406 -5.46875 2.65625 -5.59375 3.15625 -5.59375 C 3.664062 -5.59375 4.128906 -5.46875 4.546875 -5.21875 C 4.972656 -4.976562 5.304688 -4.640625 5.546875 -4.203125 C 5.796875 -3.765625 5.921875 -3.273438 5.921875 -2.734375 Z M 4.921875 -2.734375 C 4.921875 -3.109375 4.84375 -3.441406 4.6875 -3.734375 C 4.53125 -4.035156 4.316406 -4.265625 4.046875 -4.421875 C 3.785156 -4.585938 3.488281 -4.671875 3.15625 -4.671875 C 2.832031 -4.671875 2.535156 -4.585938 2.265625 -4.421875 C 2.003906 -4.265625 1.796875 -4.035156 1.640625 -3.734375 C 1.484375 -3.441406 1.40625 -3.109375 1.40625 -2.734375 C 1.40625 -2.367188 1.484375 -2.035156 1.640625 -1.734375 C 1.796875 -1.441406 2.003906 -1.210938 2.265625 -1.046875 C 2.535156 -0.890625 2.832031 -0.8125 3.15625 -0.8125 C 3.488281 -0.8125 3.785156 -0.890625 4.046875 -1.046875 C 4.316406 -1.210938 4.53125 -1.441406 4.6875 -1.734375 C 4.84375 -2.035156 4.921875 -2.367188 4.921875 -2.734375 Z M 4.921875 -2.734375 "/></g></g></g><g fill="#f1efe7" fill-opacity="1"><g transform="translate(267.158979, 120.354739)"><g><path d="M 3.484375 -5.5625 C 3.960938 -5.5625 4.390625 -5.441406 4.765625 -5.203125 C 5.148438 -4.960938 5.453125 -4.625 5.671875 -4.1875 C 5.890625 -3.757812 6 -3.273438 6 -2.734375 C 6 -2.191406 5.890625 -1.707031 5.671875 -1.28125 C 5.453125 -0.851562 5.148438 -0.515625 4.765625 -0.265625 C 4.390625 -0.0234375 3.96875 0.09375 3.5 0.09375 C 3.144531 0.09375 2.8125 0.015625 2.5 -0.140625 C 2.1875 -0.304688 1.929688 -0.503906 1.734375 -0.734375 L 1.734375 1.59375 C 1.734375 1.726562 1.6875 1.84375 1.59375 1.9375 C 1.5 2.039062 1.378906 2.09375 1.234375 2.09375 C 1.085938 2.09375 0.96875 2.046875 0.875 1.953125 C 0.78125 1.859375 0.734375 1.738281 0.734375 1.59375 L 0.734375 -4.984375 C 0.734375 -5.128906 0.78125 -5.25 0.875 -5.34375 C 0.96875 -5.4375 1.085938 -5.484375 1.234375 -5.484375 C 1.378906 -5.484375 1.5 -5.4375 1.59375 -5.34375 C 1.6875 -5.25 1.734375 -5.128906 1.734375 -4.984375 L 1.734375 -4.671875 C 1.898438 -4.921875 2.140625 -5.128906 2.453125 -5.296875 C 2.773438 -5.472656 3.117188 -5.5625 3.484375 -5.5625 Z M 3.375 -0.828125 C 3.6875 -0.828125 3.972656 -0.910156 4.234375 -1.078125 C 4.492188 -1.242188 4.691406 -1.46875 4.828125 -1.75 C 4.972656 -2.039062 5.046875 -2.367188 5.046875 -2.734375 C 5.046875 -3.097656 4.972656 -3.421875 4.828125 -3.703125 C 4.691406 -3.992188 4.492188 -4.222656 4.234375 -4.390625 C 3.972656 -4.554688 3.6875 -4.640625 3.375 -4.640625 C 3.039062 -4.640625 2.742188 -4.554688 2.484375 -4.390625 C 2.234375 -4.234375 2.035156 -4.007812 1.890625 -3.71875 C 1.753906 -3.425781 1.6875 -3.097656 1.6875 -2.734375 C 1.6875 -2.367188 1.753906 -2.039062 1.890625 -1.75 C 2.035156 -1.457031 2.234375 -1.226562 2.484375 -1.0625 C 2.742188 -0.90625 3.039062 -0.828125 3.375 -0.828125 Z M 3.375 -0.828125 "/></g></g></g><g fill="#f1efe7" fill-opacity="1"><g transform="translate(280.374981, 120.354739)"><g><path d="M 5.546875 -2.9375 C 5.535156 -2.8125 5.476562 -2.707031 5.375 -2.625 C 5.28125 -2.539062 5.171875 -2.5 5.046875 -2.5 L 1.375 -2.5 C 1.414062 -1.988281 1.601562 -1.578125 1.9375 -1.265625 C 2.28125 -0.960938 2.695312 -0.8125 3.1875 -0.8125 C 3.519531 -0.8125 3.789062 -0.859375 4 -0.953125 C 4.207031 -1.054688 4.390625 -1.1875 4.546875 -1.34375 C 4.648438 -1.40625 4.753906 -1.4375 4.859375 -1.4375 C 4.972656 -1.4375 5.066406 -1.390625 5.140625 -1.296875 C 5.222656 -1.210938 5.265625 -1.117188 5.265625 -1.015625 C 5.265625 -0.867188 5.195312 -0.734375 5.0625 -0.609375 C 4.863281 -0.410156 4.59375 -0.238281 4.25 -0.09375 C 3.914062 0.0390625 3.578125 0.109375 3.234375 0.109375 C 2.671875 0.109375 2.175781 -0.0078125 1.75 -0.25 C 1.320312 -0.488281 0.988281 -0.816406 0.75 -1.234375 C 0.519531 -1.660156 0.40625 -2.144531 0.40625 -2.6875 C 0.40625 -3.269531 0.523438 -3.78125 0.765625 -4.21875 C 1.003906 -4.664062 1.320312 -5.003906 1.71875 -5.234375 C 2.113281 -5.472656 2.535156 -5.59375 2.984375 -5.59375 C 3.429688 -5.59375 3.847656 -5.476562 4.234375 -5.25 C 4.628906 -5.019531 4.941406 -4.703125 5.171875 -4.296875 C 5.410156 -3.890625 5.535156 -3.4375 5.546875 -2.9375 Z M 2.984375 -4.671875 C 2.597656 -4.671875 2.257812 -4.5625 1.96875 -4.34375 C 1.6875 -4.125 1.5 -3.785156 1.40625 -3.328125 L 4.484375 -3.328125 L 4.484375 -3.40625 C 4.453125 -3.78125 4.285156 -4.082031 3.984375 -4.3125 C 3.691406 -4.550781 3.359375 -4.671875 2.984375 -4.671875 Z M 2.984375 -4.671875 "/></g></g></g><g fill="#f1efe7" fill-opacity="1"><g transform="translate(293.131649, 120.354739)"><g><path d="M 3.46875 -5.59375 C 3.644531 -5.59375 3.800781 -5.546875 3.9375 -5.453125 C 4.070312 -5.359375 4.140625 -5.242188 4.140625 -5.109375 C 4.140625 -4.941406 4.09375 -4.8125 4 -4.71875 C 3.914062 -4.632812 3.8125 -4.59375 3.6875 -4.59375 C 3.625 -4.59375 3.53125 -4.613281 3.40625 -4.65625 C 3.257812 -4.707031 3.144531 -4.734375 3.0625 -4.734375 C 2.84375 -4.734375 2.628906 -4.65625 2.421875 -4.5 C 2.222656 -4.351562 2.054688 -4.148438 1.921875 -3.890625 C 1.796875 -3.628906 1.734375 -3.335938 1.734375 -3.015625 L 1.734375 -0.5 C 1.734375 -0.363281 1.6875 -0.242188 1.59375 -0.140625 C 1.5 -0.046875 1.378906 0 1.234375 0 C 1.085938 0 0.96875 -0.046875 0.875 -0.140625 C 0.78125 -0.234375 0.734375 -0.351562 0.734375 -0.5 L 0.734375 -4.96875 C 0.734375 -5.101562 0.78125 -5.21875 0.875 -5.3125 C 0.96875 -5.414062 1.085938 -5.46875 1.234375 -5.46875 C 1.378906 -5.46875 1.5 -5.414062 1.59375 -5.3125 C 1.6875 -5.21875 1.734375 -5.101562 1.734375 -4.96875 L 1.734375 -4.4375 C 1.890625 -4.78125 2.117188 -5.054688 2.421875 -5.265625 C 2.722656 -5.472656 3.070312 -5.582031 3.46875 -5.59375 Z M 3.46875 -5.59375 "/></g></g></g></svg>