<svg xmlns="http://www.w3.org/2000/svg" xmlns:xlink="http://www.w3.org/1999/xlink" width="500" zoomAndPan="magnify" viewBox="0 0 375 374.999991" height="500" preserveAspectRatio="xMidYMid meet" version="1.0"><defs><g/></defs><g fill="#ffffff" fill-opacity="1"><g transform="translate(100.307554, 238.913728)"><g><path d="M 83.222656 -79.257812 L 19.816406 -79.257812 C 11.097656 -79.257812 3.964844 -72.125 3.964844 -63.40625 L 3.964844 -15.851562 C 3.964844 -7.132812 11.097656 0 19.816406 0 L 83.222656 0 L 83.222656 -15.851562 L 19.816406 -15.851562 L 19.816406 -31.703125 L 83.222656 -31.703125 L 83.222656 -47.554688 L 19.816406 -47.554688 L 19.816406 -63.40625 L 83.222656 -63.40625 Z M 83.222656 -79.257812 "/></g></g></g><g fill="#ffffff" fill-opacity="1"><g transform="translate(187.472625, 238.913728)"><g><path d="M 83.222656 -79.257812 L 19.816406 -79.257812 C 11.097656 -79.257812 3.964844 -72.125 3.964844 -63.40625 L 3.964844 -47.554688 C 3.964844 -38.835938 11.097656 -31.703125 19.816406 -31.703125 L 67.371094 -31.703125 L 67.371094 -15.851562 L 3.964844 -15.851562 L 3.964844 0 L 67.371094 0 C 76.085938 0 83.222656 -7.132812 83.222656 -15.851562 L 83.222656 -31.703125 C 83.222656 -40.421875 76.085938 -47.554688 67.371094 -47.554688 L 19.816406 -47.554688 L 19.816406 -63.40625 L 83.222656 -63.40625 Z M 83.222656 -79.257812 "/></g></g></g><g fill="#5fead6" fill-opacity="1"><g transform="translate(83.084765, 380.777409)"><g><path d="M 28.515625 -66.515625 L -50.09375 -81.421875 L -45.40625 -161.515625 L 8.078125 -203.125 L 3.390625 -123.046875 L 82 -108.125 Z M 28.515625 -66.515625 "/></g></g></g><g fill="#5fead6" fill-opacity="1"><g transform="translate(313.81152, 22.922358)"><g><path d="M -36.390625 62.5625 L 39.84375 86.90625 L 25.46875 165.828125 L -32.65625 200.640625 L -18.296875 121.734375 L -94.515625 97.375 Z M -36.390625 62.5625 "/></g></g></g></svg>