<svg xmlns="http://www.w3.org/2000/svg" xmlns:xlink="http://www.w3.org/1999/xlink" width="500" zoomAndPan="magnify" viewBox="0 0 375 374.999991" height="500" preserveAspectRatio="xMidYMid meet" version="1.0"><defs><g/><clipPath id="2bc670c1ed"><path d="M 102.664062 138.675781 L 194 138.675781 L 194 236.175781 L 102.664062 236.175781 Z M 102.664062 138.675781 " clip-rule="nonzero"/></clipPath></defs><g clip-path="url(#2bc670c1ed)"><path fill="#77b0aa" d="M 114.828125 187.496094 C 114.828125 167.082031 131.363281 150.546875 151.78125 150.546875 C 162.675781 150.546875 172.476562 155.269531 179.246094 162.78125 L 193.878906 162.78125 C 185.394531 148.355469 169.710938 138.675781 151.78125 138.675781 C 124.8125 138.675781 102.960938 160.53125 102.960938 187.496094 C 102.960938 214.453125 124.8125 236.304688 151.78125 236.304688 C 169.710938 236.304688 185.394531 226.625 193.878906 212.210938 L 179.246094 212.210938 C 172.476562 219.722656 162.675781 224.449219 151.78125 224.449219 C 131.363281 224.449219 114.828125 207.902344 114.828125 187.496094 Z M 165.355469 179.972656 L 128.636719 179.972656 C 130.679688 160.796875 155.066406 161.359375 163.164062 172.472656 L 179.246094 172.777344 L 181.621094 179.972656 Z M 144.902344 195.019531 L 181.621094 195.019531 C 179.574219 214.183594 155.1875 213.625 147.09375 202.507812 L 131.007812 202.203125 L 128.636719 195.019531 Z M 144.902344 195.019531 " fill-opacity="1" fill-rule="evenodd"/></g><g fill="#ffffff" fill-opacity="1"><g transform="translate(184.834051, 206.457466)"><g><path d="M 41.757812 -39.769531 L 9.941406 -39.769531 C 5.566406 -39.769531 1.988281 -36.1875 1.988281 -31.8125 L 1.988281 -7.953125 C 1.988281 -3.578125 5.566406 0 9.941406 0 L 41.757812 0 L 41.757812 -7.953125 L 9.941406 -7.953125 L 9.941406 -15.90625 L 41.757812 -15.90625 L 41.757812 -23.859375 L 9.941406 -23.859375 L 9.941406 -31.8125 L 41.757812 -31.8125 Z M 41.757812 -39.769531 "/></g></g></g><g fill="#ffffff" fill-opacity="1"><g transform="translate(228.569339, 206.457466)"><g><path d="M 41.757812 -39.769531 L 9.941406 -39.769531 C 5.566406 -39.769531 1.988281 -36.1875 1.988281 -31.8125 L 1.988281 -23.859375 C 1.988281 -19.484375 5.566406 -15.90625 9.941406 -15.90625 L 33.804688 -15.90625 L 33.804688 -7.953125 L 1.988281 -7.953125 L 1.988281 0 L 33.804688 0 C 38.175781 0 41.757812 -3.578125 41.757812 -7.953125 L 41.757812 -15.90625 C 41.757812 -20.28125 38.175781 -23.859375 33.804688 -23.859375 L 9.941406 -23.859375 L 9.941406 -31.8125 L 41.757812 -31.8125 Z M 41.757812 -39.769531 "/></g></g></g></svg>