<svg xmlns="http://www.w3.org/2000/svg" xmlns:xlink="http://www.w3.org/1999/xlink" width="500" zoomAndPan="magnify" viewBox="0 0 375 374.999991" height="500" preserveAspectRatio="xMidYMid meet" version="1.0"><defs><g/></defs><g fill="#ffffff" fill-opacity="1"><g transform="translate(103.546894, 221.648458)"><g><path d="M 76.261719 -72.632812 L 18.15625 -72.632812 C 10.167969 -72.632812 3.632812 -66.09375 3.632812 -58.105469 L 3.632812 -14.527344 C 3.632812 -6.535156 10.167969 0 18.15625 0 L 76.261719 0 L 76.261719 -14.527344 L 18.15625 -14.527344 L 18.15625 -29.054688 L 76.261719 -29.054688 L 76.261719 -43.578125 L 18.15625 -43.578125 L 18.15625 -58.105469 L 76.261719 -58.105469 Z M 76.261719 -72.632812 "/></g></g></g><g fill="#ffffff" fill-opacity="1"><g transform="translate(183.424689, 221.648458)"><g><path d="M 76.261719 -72.632812 L 18.15625 -72.632812 C 10.167969 -72.632812 3.632812 -66.09375 3.632812 -58.105469 L 3.632812 -43.578125 C 3.632812 -35.589844 10.167969 -29.054688 18.15625 -29.054688 L 61.738281 -29.054688 L 61.738281 -14.527344 L 3.632812 -14.527344 L 3.632812 0 L 61.738281 0 C 69.726562 0 76.261719 -6.535156 76.261719 -14.527344 L 76.261719 -29.054688 C 76.261719 -37.042969 69.726562 -43.578125 61.738281 -43.578125 L 18.15625 -43.578125 L 18.15625 -58.105469 L 76.261719 -58.105469 Z M 76.261719 -72.632812 "/></g></g></g><g fill="#5fead6" fill-opacity="1"><g transform="translate(312.863569, 41.169522)"><g><path d="M -28.125 48.34375 L 30.796875 67.15625 L 19.671875 128.15625 L -25.25 155.0625 L -14.125 94.0625 L -73.046875 75.25 Z M -28.125 48.34375 "/></g></g></g><g fill="#5fead6" fill-opacity="1"><g transform="translate(60.152757, 333.517432)"><g><path d="M 28.671875 -48.03125 L -30.03125 -67.5 L -18.21875 -128.390625 L 27 -154.765625 L 15.203125 -93.890625 L 73.890625 -74.40625 Z M 28.671875 -48.03125 "/></g></g></g></svg>